<svg width="28" height="27" viewBox="0 0 28 27" fill="none" xmlns="http://www.w3.org/2000/svg">
<path id="Star 6" d="M13.1751 1.4725C13.5723 0.892922 14.4277 0.892923 14.8249 1.47249L18.4158 6.71211C18.8059 7.2813 19.3803 7.69862 20.0422 7.89373L26.135 9.68978C26.8089 9.88845 27.0733 10.7019 26.6448 11.2588L22.7713 16.2931C22.3505 16.84 22.1311 17.5152 22.1501 18.205L22.3247 24.5546C22.344 25.257 21.6521 25.7597 20.99 25.5243L15.0051 23.3961C14.355 23.1649 13.645 23.1649 12.9949 23.3961L7.00996 25.5243C6.34795 25.7597 5.65597 25.257 5.67529 24.5546L5.84993 18.205C5.8689 17.5152 5.6495 16.84 5.22871 16.2931L1.35521 11.2588C0.926744 10.7019 1.19106 9.88845 1.86501 9.68978L7.95783 7.89373C8.61971 7.69862 9.1941 7.2813 9.58419 6.71211L13.1751 1.4725Z" stroke="#333333" stroke-width="2"/>
</svg>
